<?xml version="1.0" encoding="utf-8"?>
<!-- Generator: Adobe Illustrator 24.0.0, SVG Export Plug-In . SVG Version: 6.00 Build 0)  -->
<svg version="1.1" id="Layer_1"
	xmlns="http://www.w3.org/2000/svg"
	xmlns:xlink="http://www.w3.org/1999/xlink" x="0px" y="0px" viewBox="0 0 918.9 278.67" style="enable-background:new 0 0 918.9 278.67;" xml:space="preserve">
	<style type="text/css">
	.st0{fill:#FFF;}
	</style>
	<g>
		<path class="st0" d="M0,0v216.81h155.09v61.86h61.73v-61.86v-69.42V0H0z M155.09,155.05H61.74V61.72h93.35v85.67V155.05z"/>
		<path class="st0" d="M918.9,0.01L702.07,0v147.39v69.42v61.86h61.76v-61.86H918.9V0.01z M857.13,155.05h-93.3v-7.65V61.72h93.3
		V155.05z"/>
		<polygon class="st0" points="388.25,0 388.25,79.23 388.02,79.23 388.02,155.05 294.66,155.05 294.66,79.23 294.66,61.72 294.66,0 
		232.93,0 232.93,216.81 449.75,216.81 449.75,0 	"/>
		<polygon class="st0" points="622.05,0 622.05,61.72 622.17,61.72 622.17,155.05 528.83,155.05 528.83,76.76 528.83,61.72 528.83,0 
		467.11,0 467.11,216.81 683.9,216.81 683.9,0 	"/>
	</g>
</svg>
